<mxfile host="app.diagrams.net" modified="2022-05-10T17:58:53.185Z" agent="5.0 (Windows NT 10.0; Win64; x64) AppleWebKit/537.36 (KHTML, like Gecko) Chrome/101.0.4951.54 Safari/537.36" etag="aQme06m2TuPDjKgThiZn" version="16.6.4" type="github" pages="3">
  <diagram id="5CRBAH02Iw5ZzsUbCjn_" name="UseCase">
    <mxGraphModel dx="4382" dy="1969" grid="0" gridSize="10" guides="1" tooltips="1" connect="1" arrows="1" fold="1" page="0" pageScale="1" pageWidth="827" pageHeight="1169" math="0" shadow="0">
      <root>
        <mxCell id="0" />
        <mxCell id="1" parent="0" />
        <mxCell id="xrtFXlX63haaQcEzwFhG-38" value="" style="rounded=0;whiteSpace=wrap;html=1;fontSize=22;fillColor=none;" vertex="1" parent="1">
          <mxGeometry x="-1706" y="-350" width="934" height="1846" as="geometry" />
        </mxCell>
        <mxCell id="xrtFXlX63haaQcEzwFhG-2" value="&lt;font style=&quot;font-size: 22px&quot;&gt;Quản lý ví tổng&amp;nbsp;&lt;/font&gt;" style="ellipse;whiteSpace=wrap;html=1;" vertex="1" parent="1">
          <mxGeometry x="218" y="252" width="331" height="117" as="geometry" />
        </mxCell>
        <mxCell id="xrtFXlX63haaQcEzwFhG-34" style="edgeStyle=none;rounded=0;orthogonalLoop=1;jettySize=auto;html=1;entryX=0.046;entryY=0.707;entryDx=0;entryDy=0;entryPerimeter=0;fontSize=22;" edge="1" parent="1" source="xrtFXlX63haaQcEzwFhG-3" target="xrtFXlX63haaQcEzwFhG-8">
          <mxGeometry relative="1" as="geometry" />
        </mxCell>
        <mxCell id="xrtFXlX63haaQcEzwFhG-35" style="edgeStyle=none;rounded=0;orthogonalLoop=1;jettySize=auto;html=1;fontSize=22;" edge="1" parent="1" source="xrtFXlX63haaQcEzwFhG-3">
          <mxGeometry relative="1" as="geometry">
            <mxPoint x="-192.33329264322902" y="434.3333740234375" as="targetPoint" />
          </mxGeometry>
        </mxCell>
        <mxCell id="xrtFXlX63haaQcEzwFhG-36" style="edgeStyle=none;rounded=0;orthogonalLoop=1;jettySize=auto;html=1;fontSize=22;" edge="1" parent="1" source="xrtFXlX63haaQcEzwFhG-3" target="xrtFXlX63haaQcEzwFhG-10">
          <mxGeometry relative="1" as="geometry" />
        </mxCell>
        <mxCell id="xrtFXlX63haaQcEzwFhG-37" style="edgeStyle=none;rounded=0;orthogonalLoop=1;jettySize=auto;html=1;fontSize=22;" edge="1" parent="1" source="xrtFXlX63haaQcEzwFhG-3" target="xrtFXlX63haaQcEzwFhG-12">
          <mxGeometry relative="1" as="geometry" />
        </mxCell>
        <mxCell id="xrtFXlX63haaQcEzwFhG-3" value="&lt;font style=&quot;font-size: 23px&quot;&gt;Người dùng&lt;/font&gt;" style="shape=umlActor;verticalLabelPosition=bottom;verticalAlign=top;html=1;" vertex="1" parent="1">
          <mxGeometry x="-643" y="540" width="59" height="118" as="geometry" />
        </mxCell>
        <mxCell id="xrtFXlX63haaQcEzwFhG-6" value="&lt;font style=&quot;font-size: 22px&quot;&gt;Quản lý ví chi tiêu&amp;nbsp;&lt;/font&gt;" style="ellipse;whiteSpace=wrap;html=1;" vertex="1" parent="1">
          <mxGeometry x="305" y="409" width="331" height="117" as="geometry" />
        </mxCell>
        <mxCell id="xrtFXlX63haaQcEzwFhG-17" style="rounded=0;orthogonalLoop=1;jettySize=auto;html=1;entryX=0;entryY=0.5;entryDx=0;entryDy=0;fontSize=22;" edge="1" parent="1" source="xrtFXlX63haaQcEzwFhG-8" target="xrtFXlX63haaQcEzwFhG-13">
          <mxGeometry relative="1" as="geometry" />
        </mxCell>
        <mxCell id="xrtFXlX63haaQcEzwFhG-18" style="edgeStyle=none;rounded=0;orthogonalLoop=1;jettySize=auto;html=1;fontSize=22;exitX=1;exitY=0.5;exitDx=0;exitDy=0;" edge="1" parent="1" source="xrtFXlX63haaQcEzwFhG-8" target="xrtFXlX63haaQcEzwFhG-14">
          <mxGeometry relative="1" as="geometry" />
        </mxCell>
        <mxCell id="xrtFXlX63haaQcEzwFhG-19" style="edgeStyle=none;rounded=0;orthogonalLoop=1;jettySize=auto;html=1;fontSize=22;" edge="1" parent="1" source="xrtFXlX63haaQcEzwFhG-8" target="xrtFXlX63haaQcEzwFhG-15">
          <mxGeometry relative="1" as="geometry" />
        </mxCell>
        <mxCell id="xrtFXlX63haaQcEzwFhG-8" value="&lt;span style=&quot;font-size: 22px&quot;&gt;Quản lý tài khoản người dùng&lt;/span&gt;" style="ellipse;whiteSpace=wrap;html=1;" vertex="1" parent="1">
          <mxGeometry x="-281" y="17" width="331" height="117" as="geometry" />
        </mxCell>
        <mxCell id="xrtFXlX63haaQcEzwFhG-21" style="edgeStyle=none;rounded=0;orthogonalLoop=1;jettySize=auto;html=1;entryX=0;entryY=0.5;entryDx=0;entryDy=0;fontSize=22;" edge="1" parent="1" source="xrtFXlX63haaQcEzwFhG-9" target="xrtFXlX63haaQcEzwFhG-2">
          <mxGeometry relative="1" as="geometry" />
        </mxCell>
        <mxCell id="xrtFXlX63haaQcEzwFhG-22" style="edgeStyle=none;rounded=0;orthogonalLoop=1;jettySize=auto;html=1;fontSize=22;" edge="1" parent="1" source="xrtFXlX63haaQcEzwFhG-9" target="xrtFXlX63haaQcEzwFhG-6">
          <mxGeometry relative="1" as="geometry" />
        </mxCell>
        <mxCell id="xrtFXlX63haaQcEzwFhG-23" style="edgeStyle=none;rounded=0;orthogonalLoop=1;jettySize=auto;html=1;entryX=0.006;entryY=0.585;entryDx=0;entryDy=0;entryPerimeter=0;fontSize=22;" edge="1" parent="1" source="xrtFXlX63haaQcEzwFhG-9" target="xrtFXlX63haaQcEzwFhG-20">
          <mxGeometry relative="1" as="geometry" />
        </mxCell>
        <mxCell id="xrtFXlX63haaQcEzwFhG-9" value="&lt;span style=&quot;font-size: 22px&quot;&gt;Quản lý ví cá nhân&lt;/span&gt;" style="ellipse;whiteSpace=wrap;html=1;" vertex="1" parent="1">
          <mxGeometry x="-192" y="372" width="331" height="117" as="geometry" />
        </mxCell>
        <mxCell id="xrtFXlX63haaQcEzwFhG-10" value="&lt;span style=&quot;font-size: 22px&quot;&gt;Quản lý mục tiêu&lt;/span&gt;" style="ellipse;whiteSpace=wrap;html=1;" vertex="1" parent="1">
          <mxGeometry x="-192" y="784" width="331" height="117" as="geometry" />
        </mxCell>
        <mxCell id="xrtFXlX63haaQcEzwFhG-29" style="edgeStyle=none;rounded=0;orthogonalLoop=1;jettySize=auto;html=1;fontSize=22;" edge="1" parent="1" source="xrtFXlX63haaQcEzwFhG-12" target="xrtFXlX63haaQcEzwFhG-26">
          <mxGeometry relative="1" as="geometry" />
        </mxCell>
        <mxCell id="xrtFXlX63haaQcEzwFhG-30" style="edgeStyle=none;rounded=0;orthogonalLoop=1;jettySize=auto;html=1;fontSize=22;" edge="1" parent="1" source="xrtFXlX63haaQcEzwFhG-12" target="xrtFXlX63haaQcEzwFhG-27">
          <mxGeometry relative="1" as="geometry" />
        </mxCell>
        <mxCell id="xrtFXlX63haaQcEzwFhG-31" style="edgeStyle=none;rounded=0;orthogonalLoop=1;jettySize=auto;html=1;fontSize=22;" edge="1" parent="1" source="xrtFXlX63haaQcEzwFhG-12" target="xrtFXlX63haaQcEzwFhG-28">
          <mxGeometry relative="1" as="geometry" />
        </mxCell>
        <mxCell id="xrtFXlX63haaQcEzwFhG-12" value="&lt;span style=&quot;font-size: 22px&quot;&gt;Quản lý giao dịch&lt;/span&gt;" style="ellipse;whiteSpace=wrap;html=1;" vertex="1" parent="1">
          <mxGeometry x="-232" y="1182" width="331" height="117" as="geometry" />
        </mxCell>
        <mxCell id="xrtFXlX63haaQcEzwFhG-13" value="&lt;span style=&quot;font-size: 22px&quot;&gt;Đăng nhập&lt;/span&gt;" style="ellipse;whiteSpace=wrap;html=1;" vertex="1" parent="1">
          <mxGeometry x="172" y="-174" width="216" height="88" as="geometry" />
        </mxCell>
        <mxCell id="xrtFXlX63haaQcEzwFhG-14" value="&lt;span style=&quot;font-size: 22px&quot;&gt;Đăng xuất&lt;/span&gt;" style="ellipse;whiteSpace=wrap;html=1;" vertex="1" parent="1">
          <mxGeometry x="244" y="-57" width="216" height="88" as="geometry" />
        </mxCell>
        <mxCell id="xrtFXlX63haaQcEzwFhG-15" value="&lt;span style=&quot;font-size: 22px&quot;&gt;Reset tài khoản&lt;/span&gt;" style="ellipse;whiteSpace=wrap;html=1;" vertex="1" parent="1">
          <mxGeometry x="218" y="71" width="216" height="88" as="geometry" />
        </mxCell>
        <mxCell id="xrtFXlX63haaQcEzwFhG-20" value="&lt;span style=&quot;font-size: 22px&quot;&gt;Quản lý ví tiết kiệm&lt;/span&gt;" style="ellipse;whiteSpace=wrap;html=1;" vertex="1" parent="1">
          <mxGeometry x="244" y="560" width="331" height="117" as="geometry" />
        </mxCell>
        <mxCell id="xrtFXlX63haaQcEzwFhG-26" value="&lt;span style=&quot;font-size: 22px&quot;&gt;Quản lý Thu nhập&lt;/span&gt;" style="ellipse;whiteSpace=wrap;html=1;" vertex="1" parent="1">
          <mxGeometry x="177" y="1004" width="331" height="117" as="geometry" />
        </mxCell>
        <mxCell id="xrtFXlX63haaQcEzwFhG-27" value="&lt;span style=&quot;font-size: 22px&quot;&gt;Quản lý Chi tiêu&lt;/span&gt;" style="ellipse;whiteSpace=wrap;html=1;" vertex="1" parent="1">
          <mxGeometry x="186" y="1174" width="331" height="117" as="geometry" />
        </mxCell>
        <mxCell id="xrtFXlX63haaQcEzwFhG-28" value="&lt;span style=&quot;font-size: 22px&quot;&gt;Quản lý Chuyển tiền giữa các ví&lt;/span&gt;" style="ellipse;whiteSpace=wrap;html=1;" vertex="1" parent="1">
          <mxGeometry x="196" y="1351" width="331" height="117" as="geometry" />
        </mxCell>
      </root>
    </mxGraphModel>
  </diagram>
  <diagram id="qtNLQy-8YjjvoTyX55NH" name="UC - Quản lý ví cá nhân">
    <mxGraphModel dx="4143" dy="3266" grid="0" gridSize="10" guides="1" tooltips="1" connect="1" arrows="1" fold="1" page="0" pageScale="1" pageWidth="827" pageHeight="1169" math="0" shadow="0">
      <root>
        <mxCell id="TqDjM5r6rCgFal1plcil-0" />
        <mxCell id="TqDjM5r6rCgFal1plcil-1" parent="TqDjM5r6rCgFal1plcil-0" />
        <mxCell id="1PmWLAPj_e9iqFuGTQAr-7" style="edgeStyle=none;rounded=0;orthogonalLoop=1;jettySize=auto;html=1;entryX=0;entryY=0.5;entryDx=0;entryDy=0;fontSize=22;dashed=1;endArrow=none;endFill=0;startArrow=classic;startFill=1;" edge="1" parent="TqDjM5r6rCgFal1plcil-1" source="TqDjM5r6rCgFal1plcil-2" target="1PmWLAPj_e9iqFuGTQAr-2">
          <mxGeometry relative="1" as="geometry" />
        </mxCell>
        <mxCell id="vvkKucO3ZHcfw1jL_-ZE-9" value="&amp;lt;&amp;lt;extends&amp;gt;&amp;gt;" style="edgeLabel;html=1;align=center;verticalAlign=middle;resizable=0;points=[];fontSize=22;" vertex="1" connectable="0" parent="1PmWLAPj_e9iqFuGTQAr-7">
          <mxGeometry x="0.139" relative="1" as="geometry">
            <mxPoint as="offset" />
          </mxGeometry>
        </mxCell>
        <mxCell id="1PmWLAPj_e9iqFuGTQAr-8" style="edgeStyle=none;rounded=0;orthogonalLoop=1;jettySize=auto;html=1;entryX=0;entryY=0.5;entryDx=0;entryDy=0;fontSize=22;endArrow=none;endFill=0;startArrow=classic;startFill=1;dashed=1;" edge="1" parent="TqDjM5r6rCgFal1plcil-1" source="TqDjM5r6rCgFal1plcil-2" target="1PmWLAPj_e9iqFuGTQAr-3">
          <mxGeometry relative="1" as="geometry" />
        </mxCell>
        <mxCell id="vvkKucO3ZHcfw1jL_-ZE-10" value="&amp;lt;&amp;lt;extends&amp;gt;&amp;gt;" style="edgeLabel;html=1;align=center;verticalAlign=middle;resizable=0;points=[];fontSize=22;" vertex="1" connectable="0" parent="1PmWLAPj_e9iqFuGTQAr-8">
          <mxGeometry x="0.2388" y="-2" relative="1" as="geometry">
            <mxPoint as="offset" />
          </mxGeometry>
        </mxCell>
        <mxCell id="1PmWLAPj_e9iqFuGTQAr-9" style="edgeStyle=none;rounded=0;orthogonalLoop=1;jettySize=auto;html=1;fontSize=22;startArrow=classic;startFill=1;endArrow=none;endFill=0;dashed=1;" edge="1" parent="TqDjM5r6rCgFal1plcil-1" source="TqDjM5r6rCgFal1plcil-2" target="1PmWLAPj_e9iqFuGTQAr-4">
          <mxGeometry relative="1" as="geometry" />
        </mxCell>
        <mxCell id="vvkKucO3ZHcfw1jL_-ZE-11" value="&amp;lt;&amp;lt;extends&amp;gt;&amp;gt;" style="edgeLabel;html=1;align=center;verticalAlign=middle;resizable=0;points=[];fontSize=22;" vertex="1" connectable="0" parent="1PmWLAPj_e9iqFuGTQAr-9">
          <mxGeometry x="0.1959" y="-2" relative="1" as="geometry">
            <mxPoint as="offset" />
          </mxGeometry>
        </mxCell>
        <mxCell id="1PmWLAPj_e9iqFuGTQAr-10" style="edgeStyle=none;rounded=0;orthogonalLoop=1;jettySize=auto;html=1;fontSize=22;endArrow=none;endFill=0;startArrow=classic;startFill=1;dashed=1;" edge="1" parent="TqDjM5r6rCgFal1plcil-1" source="TqDjM5r6rCgFal1plcil-2" target="1PmWLAPj_e9iqFuGTQAr-5">
          <mxGeometry relative="1" as="geometry" />
        </mxCell>
        <mxCell id="vvkKucO3ZHcfw1jL_-ZE-12" value="&amp;lt;&amp;lt;extends&amp;gt;&amp;gt;" style="edgeLabel;html=1;align=center;verticalAlign=middle;resizable=0;points=[];fontSize=22;" vertex="1" connectable="0" parent="1PmWLAPj_e9iqFuGTQAr-10">
          <mxGeometry x="0.1564" y="1" relative="1" as="geometry">
            <mxPoint as="offset" />
          </mxGeometry>
        </mxCell>
        <mxCell id="TqDjM5r6rCgFal1plcil-2" value="&lt;font style=&quot;font-size: 22px&quot;&gt;Quản lý ví chi tiêu&lt;/font&gt;" style="ellipse;whiteSpace=wrap;html=1;" vertex="1" parent="TqDjM5r6rCgFal1plcil-1">
          <mxGeometry x="265" y="249" width="331" height="117" as="geometry" />
        </mxCell>
        <mxCell id="1PmWLAPj_e9iqFuGTQAr-14" style="edgeStyle=none;rounded=0;orthogonalLoop=1;jettySize=auto;html=1;fontSize=22;startArrow=classic;startFill=1;endArrow=none;endFill=0;dashed=1;" edge="1" parent="TqDjM5r6rCgFal1plcil-1" source="TqDjM5r6rCgFal1plcil-3" target="1PmWLAPj_e9iqFuGTQAr-13">
          <mxGeometry relative="1" as="geometry" />
        </mxCell>
        <mxCell id="vvkKucO3ZHcfw1jL_-ZE-6" value="&amp;lt;&amp;lt;extends&amp;gt;&amp;gt;" style="edgeLabel;html=1;align=center;verticalAlign=middle;resizable=0;points=[];fontSize=22;" vertex="1" connectable="0" parent="1PmWLAPj_e9iqFuGTQAr-14">
          <mxGeometry x="0.2093" y="-2" relative="1" as="geometry">
            <mxPoint x="1" as="offset" />
          </mxGeometry>
        </mxCell>
        <mxCell id="1PmWLAPj_e9iqFuGTQAr-20" style="edgeStyle=none;rounded=0;orthogonalLoop=1;jettySize=auto;html=1;fontSize=22;startArrow=classic;startFill=1;endArrow=none;endFill=0;dashed=1;" edge="1" parent="TqDjM5r6rCgFal1plcil-1" source="TqDjM5r6rCgFal1plcil-3" target="1PmWLAPj_e9iqFuGTQAr-18">
          <mxGeometry relative="1" as="geometry" />
        </mxCell>
        <mxCell id="vvkKucO3ZHcfw1jL_-ZE-7" value="&amp;lt;&amp;lt;extends&amp;gt;&amp;gt;" style="edgeLabel;html=1;align=center;verticalAlign=middle;resizable=0;points=[];fontSize=22;" vertex="1" connectable="0" parent="1PmWLAPj_e9iqFuGTQAr-20">
          <mxGeometry x="0.169" relative="1" as="geometry">
            <mxPoint as="offset" />
          </mxGeometry>
        </mxCell>
        <mxCell id="1PmWLAPj_e9iqFuGTQAr-21" style="edgeStyle=none;rounded=0;orthogonalLoop=1;jettySize=auto;html=1;fontSize=22;dashed=1;endArrow=none;endFill=0;startArrow=none;startFill=0;" edge="1" parent="TqDjM5r6rCgFal1plcil-1" source="TqDjM5r6rCgFal1plcil-3" target="1PmWLAPj_e9iqFuGTQAr-19">
          <mxGeometry relative="1" as="geometry" />
        </mxCell>
        <mxCell id="vvkKucO3ZHcfw1jL_-ZE-8" value="&amp;lt;&amp;lt;extends&amp;gt;&amp;gt;" style="edgeLabel;html=1;align=center;verticalAlign=middle;resizable=0;points=[];fontSize=22;" vertex="1" connectable="0" parent="1PmWLAPj_e9iqFuGTQAr-21">
          <mxGeometry x="0.1589" relative="1" as="geometry">
            <mxPoint as="offset" />
          </mxGeometry>
        </mxCell>
        <mxCell id="1PmWLAPj_e9iqFuGTQAr-24" value="&lt;br&gt;&lt;span style=&quot;color: rgb(0 , 0 , 0) ; font-family: &amp;#34;helvetica&amp;#34; ; font-size: 22px ; font-style: normal ; font-weight: 400 ; letter-spacing: normal ; text-align: center ; text-indent: 0px ; text-transform: none ; word-spacing: 0px ; background-color: rgb(255 , 255 , 255) ; display: inline ; float: none&quot;&gt;&amp;lt;&amp;lt;extends&amp;gt;&amp;gt;&lt;/span&gt;" style="edgeStyle=none;rounded=0;orthogonalLoop=1;jettySize=auto;html=1;fontSize=22;dashed=1;endArrow=none;endFill=0;startArrow=classic;startFill=1;" edge="1" parent="TqDjM5r6rCgFal1plcil-1" source="TqDjM5r6rCgFal1plcil-3" target="1PmWLAPj_e9iqFuGTQAr-23">
          <mxGeometry relative="1" as="geometry" />
        </mxCell>
        <mxCell id="TqDjM5r6rCgFal1plcil-3" value="&lt;font style=&quot;font-size: 22px&quot;&gt;Quản lý ví tiết kiệm&amp;nbsp;&lt;/font&gt;" style="ellipse;whiteSpace=wrap;html=1;" vertex="1" parent="TqDjM5r6rCgFal1plcil-1">
          <mxGeometry x="181" y="928" width="331" height="117" as="geometry" />
        </mxCell>
        <mxCell id="TqDjM5r6rCgFal1plcil-5" style="edgeStyle=none;rounded=0;orthogonalLoop=1;jettySize=auto;html=1;entryX=0;entryY=0.5;entryDx=0;entryDy=0;fontSize=22;dashed=1;" edge="1" parent="TqDjM5r6rCgFal1plcil-1" source="TqDjM5r6rCgFal1plcil-9" target="TqDjM5r6rCgFal1plcil-2">
          <mxGeometry relative="1" as="geometry" />
        </mxCell>
        <mxCell id="vvkKucO3ZHcfw1jL_-ZE-4" value="&amp;lt;&amp;lt;include&amp;gt;&amp;gt;" style="edgeLabel;html=1;align=center;verticalAlign=middle;resizable=0;points=[];fontSize=22;" vertex="1" connectable="0" parent="TqDjM5r6rCgFal1plcil-5">
          <mxGeometry x="0.178" y="3" relative="1" as="geometry">
            <mxPoint x="1" as="offset" />
          </mxGeometry>
        </mxCell>
        <mxCell id="TqDjM5r6rCgFal1plcil-6" style="edgeStyle=none;rounded=0;orthogonalLoop=1;jettySize=auto;html=1;fontSize=22;dashed=1;" edge="1" parent="TqDjM5r6rCgFal1plcil-1" source="TqDjM5r6rCgFal1plcil-9" target="TqDjM5r6rCgFal1plcil-3">
          <mxGeometry relative="1" as="geometry" />
        </mxCell>
        <mxCell id="vvkKucO3ZHcfw1jL_-ZE-5" value="&amp;lt;&amp;lt;include&amp;gt;&amp;gt;" style="edgeLabel;html=1;align=center;verticalAlign=middle;resizable=0;points=[];fontSize=22;" vertex="1" connectable="0" parent="TqDjM5r6rCgFal1plcil-6">
          <mxGeometry x="0.1277" y="3" relative="1" as="geometry">
            <mxPoint as="offset" />
          </mxGeometry>
        </mxCell>
        <mxCell id="1PmWLAPj_e9iqFuGTQAr-33" style="edgeStyle=none;rounded=0;orthogonalLoop=1;jettySize=auto;html=1;fontSize=22;dashed=1;" edge="1" parent="TqDjM5r6rCgFal1plcil-1" source="TqDjM5r6rCgFal1plcil-9" target="1PmWLAPj_e9iqFuGTQAr-26">
          <mxGeometry relative="1" as="geometry" />
        </mxCell>
        <mxCell id="vvkKucO3ZHcfw1jL_-ZE-3" value="&amp;lt;&amp;lt;include&amp;gt;&amp;gt;" style="edgeLabel;html=1;align=center;verticalAlign=middle;resizable=0;points=[];fontSize=22;" vertex="1" connectable="0" parent="1PmWLAPj_e9iqFuGTQAr-33">
          <mxGeometry x="0.0941" y="-3" relative="1" as="geometry">
            <mxPoint as="offset" />
          </mxGeometry>
        </mxCell>
        <mxCell id="TqDjM5r6rCgFal1plcil-9" value="&lt;span style=&quot;font-size: 22px&quot;&gt;Quản lý ví cá nhân&lt;/span&gt;" style="ellipse;whiteSpace=wrap;html=1;" vertex="1" parent="TqDjM5r6rCgFal1plcil-1">
          <mxGeometry x="-250" y="390" width="331" height="117" as="geometry" />
        </mxCell>
        <mxCell id="1PmWLAPj_e9iqFuGTQAr-2" value="&lt;span style=&quot;font-size: 22px&quot;&gt;Quản lý thông tin ví&lt;/span&gt;" style="ellipse;whiteSpace=wrap;html=1;" vertex="1" parent="TqDjM5r6rCgFal1plcil-1">
          <mxGeometry x="700" y="32" width="331" height="117" as="geometry" />
        </mxCell>
        <mxCell id="1PmWLAPj_e9iqFuGTQAr-3" value="&lt;span style=&quot;font-size: 22px&quot;&gt;Quản lý lịch sử thu chi của ví&lt;/span&gt;" style="ellipse;whiteSpace=wrap;html=1;" vertex="1" parent="TqDjM5r6rCgFal1plcil-1">
          <mxGeometry x="836" y="183" width="331" height="117" as="geometry" />
        </mxCell>
        <mxCell id="1PmWLAPj_e9iqFuGTQAr-4" value="&lt;span style=&quot;font-size: 22px&quot;&gt;Quản lý cấu trúc phân bổ chi tiêu của ví&lt;/span&gt;" style="ellipse;whiteSpace=wrap;html=1;" vertex="1" parent="TqDjM5r6rCgFal1plcil-1">
          <mxGeometry x="821" y="332" width="331" height="117" as="geometry" />
        </mxCell>
        <mxCell id="1PmWLAPj_e9iqFuGTQAr-5" value="&lt;span style=&quot;font-size: 22px&quot;&gt;Quản lý sức khỏe tài chính của ví&lt;/span&gt;" style="ellipse;whiteSpace=wrap;html=1;" vertex="1" parent="TqDjM5r6rCgFal1plcil-1">
          <mxGeometry x="786" y="523" width="331" height="117" as="geometry" />
        </mxCell>
        <mxCell id="1PmWLAPj_e9iqFuGTQAr-13" value="&lt;span style=&quot;font-size: 22px&quot;&gt;Quản lý thông tin ví&lt;/span&gt;" style="ellipse;whiteSpace=wrap;html=1;" vertex="1" parent="TqDjM5r6rCgFal1plcil-1">
          <mxGeometry x="584" y="755" width="331" height="117" as="geometry" />
        </mxCell>
        <mxCell id="1PmWLAPj_e9iqFuGTQAr-18" value="&lt;span style=&quot;font-size: 22px&quot;&gt;Quản lý lịch sử nạp rút&amp;nbsp;&lt;/span&gt;" style="ellipse;whiteSpace=wrap;html=1;" vertex="1" parent="TqDjM5r6rCgFal1plcil-1">
          <mxGeometry x="767" y="907" width="331" height="117" as="geometry" />
        </mxCell>
        <mxCell id="1PmWLAPj_e9iqFuGTQAr-19" value="&lt;span style=&quot;font-size: 22px&quot;&gt;Quản lý Người đóng góp&lt;/span&gt;" style="ellipse;whiteSpace=wrap;html=1;" vertex="1" parent="TqDjM5r6rCgFal1plcil-1">
          <mxGeometry x="709" y="1114" width="331" height="117" as="geometry" />
        </mxCell>
        <mxCell id="1PmWLAPj_e9iqFuGTQAr-23" value="&lt;span style=&quot;font-size: 22px&quot;&gt;Quản lý Mục tiêu Chi tiêu&amp;nbsp;&lt;/span&gt;" style="ellipse;whiteSpace=wrap;html=1;" vertex="1" parent="TqDjM5r6rCgFal1plcil-1">
          <mxGeometry x="455" y="1320" width="331" height="117" as="geometry" />
        </mxCell>
        <mxCell id="1PmWLAPj_e9iqFuGTQAr-30" style="edgeStyle=none;rounded=0;orthogonalLoop=1;jettySize=auto;html=1;fontSize=22;endArrow=none;endFill=0;startArrow=classic;startFill=1;dashed=1;" edge="1" parent="TqDjM5r6rCgFal1plcil-1" source="1PmWLAPj_e9iqFuGTQAr-26" target="1PmWLAPj_e9iqFuGTQAr-27">
          <mxGeometry relative="1" as="geometry" />
        </mxCell>
        <mxCell id="vvkKucO3ZHcfw1jL_-ZE-0" value="&amp;lt;&amp;lt;Include&amp;gt;&amp;gt;" style="edgeLabel;html=1;align=center;verticalAlign=middle;resizable=0;points=[];fontSize=22;" vertex="1" connectable="0" parent="1PmWLAPj_e9iqFuGTQAr-30">
          <mxGeometry x="0.1227" relative="1" as="geometry">
            <mxPoint y="1" as="offset" />
          </mxGeometry>
        </mxCell>
        <mxCell id="1PmWLAPj_e9iqFuGTQAr-31" style="edgeStyle=none;rounded=0;orthogonalLoop=1;jettySize=auto;html=1;fontSize=22;dashed=1;" edge="1" parent="TqDjM5r6rCgFal1plcil-1" source="1PmWLAPj_e9iqFuGTQAr-26" target="1PmWLAPj_e9iqFuGTQAr-28">
          <mxGeometry relative="1" as="geometry" />
        </mxCell>
        <mxCell id="vvkKucO3ZHcfw1jL_-ZE-1" value="&amp;lt;&amp;lt;extends&amp;gt;&amp;gt;" style="edgeLabel;html=1;align=center;verticalAlign=middle;resizable=0;points=[];fontSize=22;" vertex="1" connectable="0" parent="1PmWLAPj_e9iqFuGTQAr-31">
          <mxGeometry x="0.1645" y="-2" relative="1" as="geometry">
            <mxPoint as="offset" />
          </mxGeometry>
        </mxCell>
        <mxCell id="1PmWLAPj_e9iqFuGTQAr-32" style="edgeStyle=none;rounded=0;orthogonalLoop=1;jettySize=auto;html=1;fontSize=22;dashed=1;" edge="1" parent="TqDjM5r6rCgFal1plcil-1" source="1PmWLAPj_e9iqFuGTQAr-26" target="1PmWLAPj_e9iqFuGTQAr-29">
          <mxGeometry relative="1" as="geometry" />
        </mxCell>
        <mxCell id="vvkKucO3ZHcfw1jL_-ZE-2" value="&amp;lt;&amp;lt;extends&amp;gt;&amp;gt;" style="edgeLabel;html=1;align=center;verticalAlign=middle;resizable=0;points=[];fontSize=22;" vertex="1" connectable="0" parent="1PmWLAPj_e9iqFuGTQAr-32">
          <mxGeometry x="0.1315" relative="1" as="geometry">
            <mxPoint as="offset" />
          </mxGeometry>
        </mxCell>
        <mxCell id="1PmWLAPj_e9iqFuGTQAr-26" value="&lt;font style=&quot;font-size: 22px&quot;&gt;Quản lý ví tổng&lt;/font&gt;" style="ellipse;whiteSpace=wrap;html=1;" vertex="1" parent="TqDjM5r6rCgFal1plcil-1">
          <mxGeometry x="305" y="-288" width="331" height="117" as="geometry" />
        </mxCell>
        <mxCell id="1PmWLAPj_e9iqFuGTQAr-27" value="&lt;span style=&quot;font-size: 22px&quot;&gt;Theo dõi số dư ví (có đồ thị)&lt;/span&gt;" style="ellipse;whiteSpace=wrap;html=1;" vertex="1" parent="TqDjM5r6rCgFal1plcil-1">
          <mxGeometry x="644" y="-538" width="331" height="117" as="geometry" />
        </mxCell>
        <mxCell id="1PmWLAPj_e9iqFuGTQAr-28" value="&lt;span style=&quot;font-size: 22px&quot;&gt;Quản lý vay nợ&lt;/span&gt;" style="ellipse;whiteSpace=wrap;html=1;" vertex="1" parent="TqDjM5r6rCgFal1plcil-1">
          <mxGeometry x="852" y="-405" width="331" height="117" as="geometry" />
        </mxCell>
        <mxCell id="1PmWLAPj_e9iqFuGTQAr-29" value="&lt;span style=&quot;font-size: 22px&quot;&gt;Quản lý ví con&lt;/span&gt;" style="ellipse;whiteSpace=wrap;html=1;" vertex="1" parent="TqDjM5r6rCgFal1plcil-1">
          <mxGeometry x="839" y="-186" width="331" height="117" as="geometry" />
        </mxCell>
        <mxCell id="1PmWLAPj_e9iqFuGTQAr-34" value="*Quản lý : Bao gồm thao tác CRUD" style="text;html=1;strokeColor=none;fillColor=none;align=center;verticalAlign=middle;whiteSpace=wrap;rounded=0;fontSize=22;" vertex="1" parent="TqDjM5r6rCgFal1plcil-1">
          <mxGeometry x="-385" y="278" width="359" height="30" as="geometry" />
        </mxCell>
      </root>
    </mxGraphModel>
  </diagram>
  <diagram id="P8o1jogdpaJ2XIEO7G-y" name="Page-3">
    <mxGraphModel dx="2271" dy="1233" grid="0" gridSize="10" guides="1" tooltips="1" connect="1" arrows="1" fold="1" page="0" pageScale="1" pageWidth="827" pageHeight="1169" math="0" shadow="0">
      <root>
        <mxCell id="5dGk8h-Gg87z0oImrePm-0" />
        <mxCell id="5dGk8h-Gg87z0oImrePm-1" parent="5dGk8h-Gg87z0oImrePm-0" />
        <mxCell id="4st-27MjkCdi8eHb9-ln-0" value="&lt;span style=&quot;font-size: 22px&quot;&gt;Quản lý mục tiêu&lt;/span&gt;" style="ellipse;whiteSpace=wrap;html=1;" vertex="1" parent="5dGk8h-Gg87z0oImrePm-1">
          <mxGeometry x="-314" y="356" width="331" height="117" as="geometry" />
        </mxCell>
        <mxCell id="A6juOPPKpsEHxola-Al1-0" value="&lt;span style=&quot;font-size: 22px&quot;&gt;Theo dõi tiến trình tích lũy&lt;/span&gt;" style="ellipse;whiteSpace=wrap;html=1;" vertex="1" parent="5dGk8h-Gg87z0oImrePm-1">
          <mxGeometry x="144" y="90" width="331" height="117" as="geometry" />
        </mxCell>
        <mxCell id="A6juOPPKpsEHxola-Al1-1" value="&lt;span style=&quot;font-size: 22px&quot;&gt;Quản lý ví được liên kết tới&lt;/span&gt;" style="ellipse;whiteSpace=wrap;html=1;" vertex="1" parent="5dGk8h-Gg87z0oImrePm-1">
          <mxGeometry x="189" y="273" width="331" height="117" as="geometry" />
        </mxCell>
        <mxCell id="A6juOPPKpsEHxola-Al1-2" value="&lt;span style=&quot;font-size: 22px&quot;&gt;Thanh toán mục tiêu&lt;/span&gt;" style="ellipse;whiteSpace=wrap;html=1;" vertex="1" parent="5dGk8h-Gg87z0oImrePm-1">
          <mxGeometry x="174" y="470" width="331" height="117" as="geometry" />
        </mxCell>
      </root>
    </mxGraphModel>
  </diagram>
</mxfile>
